# xmcd CD database file
# Copyright (C) 1995-1998 Ti Kan
#
# Track frame offsets:
#	150
#	12227
#	27410
#	45455
#	57620
#	73765
#	88142
#	101025
#	117125
#	135277
#	156317
#	169550
#	187372
#	216947
#
# Disc length: 3099 seconds
#
# Revision: 1
# Processed by: cddbd v1.4b42PL1 Copyright (c) Steve Scherf et al.
# Submitted via: CDex 1.30Release
#
DISCID=c90c190e
DTITLE=Bluebirds - Oh Baby!
DYEAR=1900
DGENRE=Blues
TTITLE0=Big Mamou
TTITLE1=Oh Baby
TTITLE2=Searching high and low
TTITLE3=Livin' with a feeling
TTITLE4=Spend your time on me
TTITLE5=Change my ways
TTITLE6=Home on wheels
TTITLE7=Stranded
TTITLE8=Dangerous pearl
TTITLE9=I'm going home
TTITLE10=Baby's gone and left me
TTITLE11=Nowhere to run
TTITLE12=Between the lines
TTITLE13=Jim's twist
EXTD=ID3G:   0
EXTT0=
EXTT1=
EXTT2=
EXTT3=
EXTT4=
EXTT5=
EXTT6=
EXTT7=
EXTT8=
EXTT9=
EXTT10=
EXTT11=
EXTT12=
EXTT13=
PLAYORDER=
